<?xml version="1.0" encoding="utf-8"?>
<!-- Generator: Adobe Illustrator 24.2.1, SVG Export Plug-In . SVG Version: 6.00 Build 0)  -->
<svg version="1.1" id="Capa_1" xmlns="http://www.w3.org/2000/svg" xmlns:xlink="http://www.w3.org/1999/xlink" x="0px" y="0px"
	 viewBox="0 0 512 398" style="enable-background:new 0 0 512 398;" xml:space="preserve">
<style type="text/css">
	.st0{fill:#A99269;}
</style>
<path class="st0" d="M256,7C137.7,7,37.3,87.2,0,199c37.3,111.8,137.7,192,256,192s218.7-80.2,256-192C474.7,87.2,374.3,7,256,7
	L256,7z M256,327c-70.7,0-128-57.3-128-128c0-70.7,57.3-128,128-128s128,57.3,128,128C384,269.7,326.7,327,256,327z"/>
<path class="st0" d="M301.3,153.7c25,25,25,65.5,0,90.5s-65.5,25-90.5,0s-25-65.5,0-90.5S276.3,128.8,301.3,153.7"/>
</svg>
